<svg version="1.1" id="Layer_1" xmlns="http://www.w3.org/2000/svg" xmlns:xlink="http://www.w3.org/1999/xlink" x="0px" y="0px"
	 width="100%" viewBox="0 0 896 1024" enable-background="new 0 0 896 1024" xml:space="preserve">
<path fill="#000000" opacity="1.000000" stroke="none" 
	d="
M178.350113,688.379456 
	C193.038040,670.010803 207.454361,651.882629 222.016373,633.872314 
	C224.281448,631.070862 224.645920,628.848022 223.109863,625.401611 
	C213.128494,603.006470 206.955017,579.529053 205.709335,555.036987 
	C201.374191,469.801117 227.099792,394.957336 286.061096,332.924255 
	C326.418701,290.464111 376.403992,264.663147 434.588898,255.960388 
	C467.759491,250.999069 500.673401,253.213074 532.947998,262.680389 
	C536.249817,263.648956 538.038879,262.774109 540.127869,260.339539 
	C562.373779,234.413513 583.772217,207.786865 605.564575,181.486191 
	C611.939026,173.793030 618.567932,166.302216 625.283142,158.902756 
	C629.737610,153.994354 632.447693,153.674179 637.518433,156.621262 
	C642.648254,159.602676 644.886353,164.319702 643.208862,169.595871 
	C640.834045,177.065277 637.655823,184.233780 634.089966,191.208084 
	C619.226196,220.279663 604.304932,249.321838 589.408386,278.376648 
	C588.879272,279.408600 588.388611,280.460236 587.853210,281.557648 
	C589.115295,283.894043 591.586243,284.293243 593.598145,285.266327 
	C637.130310,306.322235 674.924377,334.762085 705.210876,372.656921 
	C729.681213,403.274475 746.016541,437.712402 752.094727,476.655518 
	C755.960754,501.425659 754.141663,525.978699 749.680969,550.585083 
	C742.137451,592.197571 725.407349,629.403564 697.694336,661.343628 
	C678.512634,683.451050 656.756104,702.441406 628.409851,712.234863 
	C574.111328,730.994568 521.677551,709.552124 495.071930,657.645691 
	C483.754333,635.565552 477.857513,611.903503 475.729492,587.322083 
	C470.149628,522.868469 482.432556,461.127563 504.487488,400.903503 
	C518.837708,361.718353 536.738220,324.150757 556.003540,287.196899 
	C556.836304,285.599457 557.631165,283.982208 558.698608,281.869751 
	C552.067932,278.732880 545.365662,276.980621 538.637268,275.367004 
	C536.454590,274.843567 535.493652,276.860413 534.333435,278.231384 
	C514.749390,301.372711 495.160156,324.509735 475.590973,347.663666 
	C428.925659,402.877167 382.106934,457.962036 335.667389,513.364807 
	C303.779419,551.407471 272.484467,589.946777 240.743103,628.113281 
	C237.295547,632.258728 237.283447,635.504700 239.638245,640.096375 
	C261.876617,683.459778 294.538116,717.180908 334.959259,743.784973 
	C356.208832,757.770813 378.846558,769.037354 402.823486,777.491699 
	C414.177917,781.495422 426.155273,782.734070 438.097656,783.706116 
	C445.059753,784.272766 452.056946,784.396240 459.033081,784.808655 
	C461.127014,784.932434 463.381653,784.931946 464.693298,786.997681 
	C464.449280,788.438110 463.389801,788.657837 462.427246,788.617859 
	C439.294373,787.658325 416.102966,786.666626 394.098541,778.514709 
	C359.933319,765.857788 328.554199,748.201782 300.342468,725.023804 
	C273.143372,702.677734 250.606644,676.407410 233.167419,645.797668 
	C232.439346,644.519775 231.551468,643.332886 230.345795,641.510925 
	C226.618729,646.038696 223.134521,650.181091 219.747528,654.401489 
	C202.751312,675.579590 185.834015,696.821411 168.755478,717.932800 
	C165.359818,722.130310 161.635086,726.237183 155.553696,727.186890 
	C153.438354,721.567322 155.928680,717.348816 158.797928,713.515198 
	C165.085907,705.113831 171.665726,696.930847 178.350113,688.379456 
M717.667786,415.756561 
	C702.356812,384.034058 680.595093,357.374634 653.778320,334.751007 
	C633.669495,317.786530 611.525940,303.997894 587.565247,293.123901 
	C584.950500,291.937256 582.943420,291.082184 581.163879,294.695770 
	C557.153015,343.454010 535.380371,393.111389 520.357666,445.482330 
	C510.799591,478.802917 504.309448,512.684448 502.110901,547.343994 
	C500.251587,576.655151 499.826080,605.894043 506.427307,634.752075 
	C510.669891,653.299011 517.262695,670.879272 530.678406,684.973328 
	C550.392395,705.684082 575.145203,708.923706 601.637329,704.032959 
	C628.117554,699.144348 649.674561,684.763611 668.622925,666.384399 
	C712.288574,624.030212 732.767456,571.277649 736.582153,511.455292 
	C738.699280,478.254852 732.226624,446.534668 717.667786,415.756561 
M278.134491,367.612549 
	C266.664612,382.410309 257.020325,398.313934 248.829849,415.152405 
	C231.169846,451.458862 220.077194,489.597412 217.492767,529.931519 
	C215.843048,555.677979 218.541595,581.108215 226.358276,605.839417 
	C227.943069,610.853516 229.135284,616.024170 231.994537,621.343262 
	C328.890686,503.283417 430.200439,389.652405 528.817566,273.230621 
	C527.428772,272.657074 526.992676,272.420685 526.526794,272.295441 
	C525.241821,271.949890 523.951355,271.618744 522.650818,271.338196 
	C492.624115,264.860779 462.498444,264.673492 432.489624,270.962677 
	C369.500366,284.163849 318.565125,316.896545 278.134491,367.612549 
M572.287476,233.774948 
	C563.345093,244.361496 553.871704,254.515915 545.188965,265.989899 
	C550.344849,267.762573 554.813171,269.055084 559.076416,270.838013 
	C562.817749,272.402679 564.693848,271.253876 566.590698,267.854034 
	C575.185547,252.448700 584.015503,237.174042 592.815247,221.883667 
	C597.848999,213.137054 602.987000,204.450409 608.078003,195.736771 
	C607.827942,195.561295 607.577820,195.385818 607.327759,195.210342 
	C595.803955,207.889862 584.280212,220.569366 572.287476,233.774948 
z"/>
<path fill="#000000" opacity="1.000000" stroke="none" 
	d="
M324.302216,841.589111 
	C324.287231,849.854797 324.236816,857.683044 324.298523,865.510437 
	C324.321228,868.391541 323.738922,870.261292 320.217773,870.305603 
	C316.586273,870.351196 315.646301,868.648315 315.694641,865.408508 
	C315.801483,858.248474 315.660522,851.085083 315.730927,843.924072 
	C315.781433,838.785034 316.306915,833.487671 308.784607,832.097595 
	C313.356964,830.413269 317.417267,830.060120 321.421326,831.962219 
	C322.835052,832.633789 323.894501,833.217957 325.519440,832.299683 
	C332.174011,828.539429 338.551636,828.855225 344.242310,834.210083 
	C346.043915,833.209595 347.572388,832.189941 349.230438,831.468079 
	C359.399750,827.039856 367.557251,831.762390 368.145813,842.763062 
	C368.563477,850.569031 368.196655,858.414795 368.287201,866.241577 
	C368.322571,869.301086 366.875977,870.298218 363.995300,870.287537 
	C361.112610,870.276855 359.684174,869.247986 359.712006,866.206726 
	C359.779022,858.879272 359.755676,851.550049 359.679810,844.222473 
	C359.617218,838.181885 357.378723,834.664917 353.779388,834.686890 
	C349.439026,834.713440 346.270538,838.858582 346.267792,844.536682 
	C346.264435,851.531860 346.221924,858.527649 346.301910,865.521912 
	C346.335022,868.417175 345.724670,870.275940 342.219971,870.319031 
	C338.602234,870.363586 337.659058,868.663391 337.694519,865.415039 
	C337.779938,857.588867 337.804077,849.756470 337.573578,841.934875 
	C337.469727,838.410095 336.082642,834.908997 331.955750,834.936768 
	C328.225952,834.961853 324.681580,836.414185 324.302216,841.589111 
z"/>
<path fill="#000000" opacity="1.000000" stroke="none" 
	d="
M719.868530,825.383179 
	C719.328857,820.054932 719.328857,820.054932 712.828735,816.552124 
	C716.211121,814.360779 719.448547,815.550598 722.512756,815.652100 
	C726.504395,815.784363 727.900696,818.397522 728.268555,821.896240 
	C728.612427,825.167542 727.845398,828.516724 728.907410,832.075439 
	C733.593445,830.995300 737.975281,829.004944 742.999817,830.442871 
	C748.094421,831.900879 751.209412,834.879761 752.236023,839.818176 
	C754.117188,848.867615 753.030029,858.064026 753.046875,867.198547 
	C753.052490,870.244446 750.650696,870.265137 748.368469,870.267151 
	C745.923828,870.269348 744.679626,869.267578 744.697205,866.699951 
	C744.740479,860.374084 744.704529,854.047607 744.671326,847.721497 
	C744.662598,846.059998 744.733887,844.366089 744.446533,842.744080 
	C743.563721,837.760925 739.794556,834.320496 735.784119,834.644104 
	C731.253296,835.009827 728.389221,838.627441 728.362000,844.107300 
	C728.332275,850.100525 728.632263,856.112610 728.234985,862.079651 
	C728.034607,865.088745 730.827576,870.142578 724.276245,870.244141 
	C717.864624,870.343567 720.040039,865.426453 719.986450,862.294861 
	C719.778198,850.145142 719.891785,837.989807 719.868530,825.383179 
z"/>
<path fill="#000000" opacity="1.000000" stroke="none" 
	d="
M490.826538,845.000000 
	C490.833679,839.505554 490.879425,834.510864 490.836914,829.516785 
	C490.791168,824.145447 492.278320,817.938293 483.004578,817.316895 
	C488.273834,814.605896 496.054657,815.103638 497.852722,817.765686 
	C500.759552,822.069153 498.339264,827.250732 499.951538,832.295959 
	C504.673126,830.471619 509.302338,828.973206 514.407349,830.591614 
	C519.406677,832.176514 522.374512,835.297546 523.248291,840.335327 
	C524.766968,849.090515 523.890869,857.939148 524.028503,866.747314 
	C524.080078,870.052734 521.769104,870.220276 519.226379,870.283875 
	C516.338440,870.356079 515.499573,869.035400 515.559326,866.331360 
	C515.695496,860.174316 515.634766,854.012573 515.618530,847.852844 
	C515.614624,846.359253 515.610229,844.843750 515.370911,843.376648 
	C514.499512,838.035889 510.889191,834.419312 506.753876,834.610107 
	C502.168213,834.821716 499.341400,838.572815 499.328430,844.498169 
	C499.312775,851.656860 499.221100,858.817200 499.350250,865.973450 
	C499.409851,869.275146 497.975494,870.328308 494.843842,870.293884 
	C491.756317,870.260071 490.769745,868.825012 490.800293,865.976868 
	C490.873505,859.151978 490.825409,852.325684 490.826538,845.000000 
z"/>
<path fill="#000000" opacity="1.000000" stroke="none" 
	d="
M243.351608,859.214294 
	C244.513733,863.647461 247.069351,865.886597 251.314514,865.879456 
	C255.908249,865.871765 258.707947,863.145996 258.752441,858.523438 
	C258.826141,850.867188 258.846069,843.208923 258.747681,835.553284 
	C258.705994,832.310913 259.677612,830.624329 263.298859,830.666504 
	C266.842407,830.707825 267.353241,832.599915 267.333771,835.467224 
	C267.264801,845.620544 267.367676,855.775146 267.263947,865.927917 
	C267.219055,870.319031 265.461487,871.377319 261.690063,869.089783 
	C259.797272,867.941711 258.546722,868.117737 256.711517,868.962585 
	C244.250000,874.700012 234.702194,868.553223 234.672043,854.875061 
	C234.664719,851.545959 234.629974,848.216125 234.682236,844.887817 
	C234.764435,839.652649 235.237885,834.262878 228.002823,832.612183 
	C235.129211,828.162781 242.023605,830.964844 242.725937,838.350464 
	C243.369858,845.122192 243.145828,851.976562 243.351608,859.214294 
z"/>
<path fill="#000000" opacity="1.000000" stroke="none" 
	d="
M436.019775,867.756897 
	C431.387817,870.241760 426.930542,871.721252 421.893921,870.528625 
	C416.193298,869.178711 412.969269,865.656006 412.701477,860.313721 
	C412.406067,854.420349 414.659821,851.011719 420.350128,848.970093 
	C424.131409,847.613403 428.122284,847.146057 432.084015,846.894958 
	C435.400726,846.684631 435.952759,845.064819 435.384338,842.285217 
	C434.647583,838.682312 433.352600,835.442078 429.342316,834.561340 
	C425.374969,833.689941 422.118683,834.929626 420.086945,838.657471 
	C419.250824,840.191650 418.272034,841.743408 416.265930,840.880127 
	C414.026672,839.916626 414.676941,837.808105 415.049286,836.087891 
	C415.448212,834.245117 416.638885,832.863281 418.317505,831.884583 
	C429.600494,825.306458 442.973389,831.746521 444.053650,844.658203 
	C444.661407,851.922363 444.375122,859.280273 444.166840,866.586731 
	C444.039612,871.049805 441.833527,871.323975 436.019775,867.756897 
M424.096344,864.602722 
	C425.985718,865.985535 428.158203,866.197998 430.285461,865.633484 
	C433.428467,864.799316 435.742828,862.832947 435.589813,859.346436 
	C435.474823,856.725586 437.263763,852.836609 433.907867,851.782959 
	C430.033875,850.566650 425.942383,852.008789 423.104401,855.265320 
	C420.544281,858.202942 420.676514,861.299133 424.096344,864.602722 
z"/>
<path fill="#000000" opacity="1.000000" stroke="none" 
	d="
M184.795456,835.467773 
	C187.726166,840.531250 187.370499,845.738098 187.341614,850.900391 
	C187.312714,856.066650 187.427979,861.236328 187.278595,866.398560 
	C187.167206,870.247314 185.217361,871.501526 182.264542,869.226318 
	C179.765884,867.301086 178.208786,868.300537 176.041687,869.319153 
	C167.766525,873.208496 158.753006,870.120300 156.446426,862.757507 
	C154.700882,857.185425 156.734879,852.474609 161.947281,849.845215 
	C166.225708,847.686951 170.920288,847.400635 175.529083,846.888611 
	C178.189590,846.593018 178.908936,845.335876 178.744858,842.946289 
	C178.484467,839.153625 177.072067,835.970947 173.323334,834.734924 
	C169.460587,833.461304 166.051132,834.632690 163.760605,838.152344 
	C162.647827,839.862244 161.660934,842.112244 159.245850,840.720215 
	C156.674026,839.237793 158.123199,836.832153 158.959518,834.955627 
	C159.464722,833.821960 160.532242,832.771667 161.604080,832.085022 
	C168.198792,827.860413 179.207291,829.373596 184.795456,835.467773 
M167.624512,854.131470 
	C164.880157,856.296509 164.447662,859.147583 165.562469,862.205627 
	C166.360458,864.394653 168.212631,865.538513 170.552567,865.801147 
	C173.800400,866.165710 176.892288,865.386292 178.157288,862.312073 
	C179.474426,859.111145 180.035522,855.093079 177.921783,852.274231 
	C176.142807,849.901794 172.967880,852.078125 170.443741,852.540466 
	C169.666122,852.682922 168.971573,853.278809 167.624512,854.131470 
z"/>
<path fill="#000000" opacity="1.000000" stroke="none" 
	d="
M602.242737,848.018433 
	C602.336426,851.632324 600.450439,852.333374 597.731689,852.298706 
	C592.245605,852.228638 586.756348,852.372131 581.271240,852.271667 
	C577.753174,852.207275 577.031921,853.565735 577.917969,856.887451 
	C580.646851,867.118164 588.622253,869.646484 596.664795,862.665161 
	C597.623047,861.833252 598.305908,860.456665 600.251892,860.961914 
	C601.645142,863.614136 599.455994,865.112061 597.950317,866.551086 
	C589.994507,874.154724 576.204895,871.747498 571.178589,861.958923 
	C568.399597,856.546997 567.959717,850.760376 569.154846,844.955811 
	C571.199890,835.023499 578.019653,829.311951 586.666504,829.843323 
	C596.514343,830.448547 601.275879,835.864258 602.242737,848.018433 
M581.139099,836.637451 
	C578.796326,839.565796 576.518494,843.234741 578.060059,846.524109 
	C579.360657,849.299133 583.513611,847.391418 586.381165,847.721619 
	C587.686768,847.872009 589.031982,847.711548 590.357178,847.649048 
	C591.421936,847.598877 592.476013,847.191528 592.654114,846.102600 
	C593.274780,842.308105 592.627808,838.752075 589.644043,836.086487 
	C587.080444,833.796143 584.307373,833.581482 581.139099,836.637451 
z"/>
<path fill="#000000" opacity="1.000000" stroke="none" 
	d="
M663.553528,865.696289 
	C667.863159,861.990295 667.872498,859.216125 663.511108,856.590576 
	C660.394592,854.714417 656.913818,853.446655 653.609375,851.878418 
	C647.420044,848.941162 644.746338,844.871399 645.484985,839.563538 
	C646.229065,834.215942 649.871216,831.062134 656.718750,830.033997 
	C661.280151,829.349060 665.734497,829.954834 669.822205,832.113525 
	C673.965088,834.301208 675.013794,838.493835 672.614868,842.282959 
	C670.879639,842.086914 670.871643,840.473694 670.256958,839.375854 
	C668.573730,836.369202 665.913330,834.786865 662.605103,834.415955 
	C658.956970,834.007019 655.091125,834.367249 653.782410,838.320374 
	C652.406799,842.475708 656.135925,844.067017 659.065308,845.590759 
	C662.603455,847.431152 666.354492,848.872009 669.844910,850.792053 
	C673.866760,853.004578 675.735352,856.602905 675.188171,861.220337 
	C674.628723,865.941711 671.531250,868.528137 667.283325,869.922058 
	C662.041992,871.642029 656.731262,871.313538 651.548584,869.797485 
	C646.185364,868.228699 644.376709,864.051575 646.693848,857.685364 
	C650.312927,864.881287 655.400635,868.511475 663.553528,865.696289 
z"/>
</svg>